<?xml version="1.0" encoding="UTF-8"?>
<svg width="36px" height="36px" viewBox="0 0 36 36" version="1.1" xmlns="http://www.w3.org/2000/svg" xmlns:xlink="http://www.w3.org/1999/xlink">
    <title>default-monochrome-white</title>
    <g id="Page-1" stroke="none" stroke-width="1" fill="none" fill-rule="evenodd">
        <g id="default-monochrome-white">
            <rect id="Rectangle" fill="#000000" x="0" y="0" width="36" height="36" rx="3"></rect>
            <path d="M8.4629535,21.3890547 L8.4629535,21.3890547 L8.4629535,30.2885572 L6.87634134,30.961194 L6.61420542,30.8189055 C6.86254471,26.4381426 6.98671436,23.0749585 6.98671436,20.7293532 L6.98671436,20.7293532 C6.98671436,20.33267 6.95452223,20.0222222 6.89013797,19.79801 L6.89013797,19.79801 C6.84414921,19.6600332 6.74757282,19.5349917 6.60040879,19.4228856 C6.46244251,19.3021559 6.28308636,19.2029851 6.06234032,19.1253731 C5.84159428,19.0391376 5.66223812,18.974461 5.52427184,18.9313433 C5.38630557,18.8968491 5.21154829,18.8494196 5,18.7890547 L5,18.7890547 L5,18.400995 L5.1517629,18.2457711 L9.00102197,18.2457711 C11.2636689,20.86733 14.073582,23.8467662 17.4307614,27.1840796 L17.4307614,27.1840796 L17.3479816,27.1452736 L17.3479816,18.4915423 L18.9070005,18 L19.2933061,18.2457711 C18.925396,22.0487562 18.741441,25.2868988 18.741441,27.960199 L18.741441,27.960199 C18.741441,29.0036484 18.778232,29.9565506 18.851814,30.8189055 L18.851814,30.8189055 L17.4031681,30.8189055 L8.22841083,21.2597015 C8.16402657,21.1820896 8.10424119,21.1432836 8.04905468,21.1432836 L8.04905468,21.1432836 C7.99386817,21.1432836 7.98007154,21.1605307 8.00766479,21.1950249 L8.00766479,21.1950249 C8.0628513,21.2553897 8.21461421,21.3200663 8.4629535,21.3890547 Z M31.7378641,29.5512438 L31.7378641,29.5512438 L32,29.719403 L31.5861012,31 C30.4363822,30.9396352 27.4287174,30.9094527 22.5631068,30.9094527 L22.5631068,30.9094527 L22.5631068,30.599005 C22.5907001,30.5731343 22.6550843,30.5127695 22.7562596,30.4179104 C22.8482371,30.3230514 22.9218191,30.2454395 22.9770056,30.1850746 C23.0413899,30.1160862 23.0827798,30.0557214 23.1011753,30.0039801 L23.1011753,30.0039801 C23.1379663,29.8573798 23.1563618,29.4391376 23.1563618,28.7492537 L23.1563618,28.7492537 L23.1563618,20.6776119 C23.1563618,20.255058 23.1241696,19.8713101 23.0597854,19.5263682 L23.0597854,19.5263682 C22.9494124,19.0693201 22.4159428,18.8149254 21.4593766,18.7631841 L21.4593766,18.7631841 L21.4593766,18.3492537 L21.6111395,18.1940299 L27.29535,18.1940299 L27.4609096,18.3492537 L27.4609096,18.8278607 C27.2125703,18.8537313 27.0056208,18.879602 26.8400613,18.9054726 C26.6745018,18.9227197 26.5227389,18.9572139 26.3847726,19.0089552 C26.2376086,19.0606965 26.1226367,19.108126 26.0398569,19.1512438 C25.9570772,19.1943615 25.8834951,19.2633499 25.8191109,19.358209 C25.7547266,19.4616915 25.7087379,19.5522388 25.6811446,19.6298507 C25.6443536,19.7074627 25.6167603,19.8325041 25.5983648,20.0049751 C25.5799693,20.1774461 25.5707716,20.33267 25.5707716,20.4706468 C25.5707716,20.6 25.5707716,20.7940299 25.5707716,21.0527363 L25.5707716,21.0527363 L25.5707716,26.3303483 C25.5707716,26.4855721 25.5661727,26.7054726 25.556975,26.9900498 C25.5477772,27.2746269 25.5431783,27.5160862 25.5431783,27.7144279 C25.5431783,27.9041459 25.5477772,28.1240464 25.556975,28.3741294 C25.556975,28.6242123 25.5661727,28.8354892 25.5845682,29.0079602 C25.6121615,29.1718076 25.6443536,29.3313433 25.6811446,29.4865672 C25.7179356,29.641791 25.7685232,29.758209 25.8329075,29.8358209 C25.9064895,29.9048093 25.9892693,29.9393035 26.0812468,29.9393035 L26.0812468,29.9393035 C27.3137455,29.9393035 29.1992846,29.8099502 31.7378641,29.5512438 Z" id="Shape" fill="#FFFFFF" fill-rule="nonzero"></path>
        </g>
    </g>
</svg>