<?xml version="1.0" encoding="UTF-8"?>
<svg width="191px" height="226px" viewBox="0 0 191 226" version="1.1" xmlns="http://www.w3.org/2000/svg" xmlns:xlink="http://www.w3.org/1999/xlink">
    <title>Group</title>
    <g id="Page-2" stroke="none" stroke-width="1" fill="none" fill-rule="evenodd" fill-opacity="1">
        <g id="Group" transform="translate(95.2376, 113.1232) scale(-1, -1) rotate(69) translate(-95.2376, -113.1232)translate(0, 48)" fill="#222" fill-rule="nonzero">
            <path d="M2.28759361,97.4855575 C2.43359361,98.0255575 2.57959361,98.5645575 2.72559361,99.1045575 C2.07859361,99.1495575 1.43159361,99.1955575 0.784593613,99.2405575 C3.06659361,100.683558 4.67359361,106.031558 6.07159361,108.442558 C7.74859361,111.336558 9.47959361,114.199558 11.2625936,117.029558 C13.4655936,120.525558 17.3605936,129.578558 22.0705936,130.202558 C27.4165936,130.911558 31.0185936,122.819558 33.5285936,119.389558 C35.9025936,116.145558 38.2775936,112.902558 40.6525936,109.658558 C41.9475936,107.889558 43.2425936,106.120558 44.5385936,104.350558 C44.9705936,103.760558 45.4015936,103.170558 45.8335936,102.581558 C47.8205936,100.966558 47.5805936,100.271558 45.1145936,100.499558 C44.5845936,99.4525575 44.0545936,98.4065575 43.5245936,97.3595575 C43.5355936,97.6565575 43.5465936,97.9545575 43.5585936,98.2515575 C44.2095936,97.2475575 44.8595936,96.2435575 45.5105936,95.2385575 C46.1255936,95.3885575 46.7395936,95.5385575 47.3535936,95.6885575 C45.6045936,93.8425575 42.2445936,94.8525575 42.1455936,97.5245575 C42.0685936,99.6005575 42.6705936,100.611558 44.3595936,101.816558 C45.3685936,102.536558 46.8615936,102.607558 47.9475936,102.025558 C48.2095936,101.884558 48.4725936,101.744558 48.7345936,101.603558 C49.7815936,101.042558 50.7455936,99.8505575 50.6865936,98.5905575 C50.4715936,93.9605575 45.9705936,91.7365575 42.4965936,95.1125575 C39.4955936,98.0275575 37.2695936,102.384558 34.8205936,105.791558 C32.0485936,109.647558 29.2775936,113.503558 26.5055936,117.360558 C25.2775936,119.068558 24.1645936,121.228558 22.6705936,122.701558 C21.6725936,123.616558 21.8195936,123.886558 23.1115936,123.513558 C22.2675936,122.473558 21.4315936,121.426558 20.6025936,120.374558 C18.1195936,117.221558 15.6965936,114.019558 13.3445936,110.767558 C10.7055936,107.117558 8.16959361,103.396558 5.70459361,99.6275575 C4.58259361,97.9115575 3.93159361,96.3815575 1.74359361,96.3155575 C1.04059361,96.2945575 0.371593613,96.7385575 0.150593613,97.4135575 C-0.151406387,98.3375575 0.00559361294,98.8175575 0.578593613,99.5875575 C0.954593613,100.092558 1.66259361,100.101558 2.18559361,99.8935575 C2.27759361,99.8565575 2.37059361,99.8205575 2.46259361,99.7835575 C3.42159361,99.4025575 3.32959361,97.6995575 2.28759361,97.4855575 L2.28759361,97.4855575 Z" id="Path"></path>
            <path d="M24.3385936,127.137558 C24.7035936,114.441558 28.1615936,102.834558 34.4135936,91.8225575 C36.0825936,88.8835575 31.7335936,85.9555575 30.0085936,88.9015575 C23.2635936,100.418558 20.1875936,113.678558 20.8325936,126.971558 C20.9405936,129.179558 24.2725936,129.440558 24.3385936,127.137558 L24.3385936,127.137558 Z" id="Path"></path>
            <path d="M40.7525936,76.9035575 C43.8705936,72.2285575 47.2265936,67.7335575 50.9635936,63.5315575 C54.0385936,60.0725575 58.0655936,57.0595575 60.4415936,53.0915575 C61.5035936,51.3175575 59.6225936,48.7575575 57.6155936,49.9155575 C53.4955936,52.2915575 50.3775936,56.7995575 47.5505936,60.5655575 C44.0645936,65.2095575 40.9815936,70.1155575 38.1805936,75.1985575 C37.2345936,76.9155575 39.6365936,78.5785575 40.7525936,76.9035575 L40.7525936,76.9035575 Z" id="Path"></path>
            <path d="M68.9925936,41.9625575 C77.3945936,32.9315575 86.7295936,25.8735575 97.3645936,19.6885575 C100.146594,18.0705575 97.9545936,13.6405575 95.0915936,15.2005575 C84.0295936,21.2255575 74.3715936,30.0565575 66.8725936,40.1195575 C65.9275936,41.3885575 67.8915936,43.1465575 68.9925936,41.9625575 L68.9925936,41.9625575 Z" id="Path"></path>
            <path d="M112.677594,12.7195575 C116.633594,12.4015575 120.490594,11.2085575 124.356594,10.3435575 C127.339594,9.67655753 133.179594,7.38755753 135.865594,9.10855753 C137.227594,9.98055753 139.103594,9.36355753 139.614594,7.80555753 C139.677594,7.61255753 139.740594,7.42055753 139.804594,7.22755753 C140.243594,5.88955753 139.653594,4.66555753 138.625594,3.83255753 C135.470594,1.27555753 130.422594,3.63055753 127.096594,4.62655753 C122.115594,6.11755753 116.559594,7.59155753 112.198594,10.4805575 C111.357594,11.0385575 111.345594,12.8265575 112.677594,12.7195575 L112.677594,12.7195575 Z" id="Path"></path>
            <path d="M157.134594,4.09755753 C162.162594,4.77255753 167.189594,5.45355753 172.221594,6.10655753 C176.192594,6.62255753 182.556594,6.18155753 185.929594,8.16855753 C187.533594,9.11355753 189.337594,8.43755753 190.028594,6.74455753 C190.113594,6.53555753 190.199594,6.32655753 190.284594,6.11655753 C190.851594,4.72555753 190.076594,3.19955753 188.980594,2.36155753 C185.653594,-0.182442471 179.642594,0.791557529 175.735594,0.643557529 C169.601594,0.410557529 163.465594,0.204557529 157.330594,0.00155752933 C154.657594,-0.0884424707 154.547594,3.75055753 157.134594,4.09755753 L157.134594,4.09755753 Z" id="Path"></path>
        </g>
    </g>
</svg>