<?xml version="1.0" encoding="UTF-8"?>
<svg width="20px" height="20px" viewBox="0 0 20 20" version="1.1" xmlns="http://www.w3.org/2000/svg" xmlns:xlink="http://www.w3.org/1999/xlink">
    <title>external-link</title>
    <g id="Page-1" stroke="none" stroke-width="1" fill="none" fill-rule="evenodd">
        <g id="external-link" fill="#fff"  fill-rule="nonzero">
            <path d="M9.06666667,3 C9.69260667,3 10.2,3.507416 10.2,4.13333333 C10.2,4.75925067 9.69260667,5.26666667 9.06666667,5.26666667 L2.26666667,5.26666667 L2.26666667,17.7333333 L14.7333333,17.7333333 L14.7333333,10.9333333 C14.7333333,10.3073933 15.2407267,9.8 15.8666667,9.8 C16.4926067,9.8 17,10.3073933 17,10.9333333 L17,17.7333333 C17,18.9852133 15.9852133,20 14.7333333,20 L2.26666667,20 C1.01482067,20 0,18.9852133 0,17.7333333 L0,5.26666667 C0,4.01482067 1.01482067,3 2.26666667,3 L9.06666667,3 Z M18.9166667,0 C19.5149917,0 20,0.48503101 20,1.08333559 L20,1.08333559 L20,6.50001354 C20,7.09831812 19.5149917,7.58334913 18.9166667,7.58334913 C18.3183417,7.58334913 17.8333333,7.09831812 17.8333333,6.50001354 L17.8333333,6.50001354 L17.8333333,3.69873521 L8.84935833,12.6827181 C8.42631667,13.1057606 7.74037167,13.1057606 7.3172975,12.6827181 C6.89423417,12.2596755 6.89423417,11.5737074 7.3172975,11.1506649 L7.3172975,11.1506649 L16.3012833,2.16667118 L13.5,2.16667118 C12.901675,2.16667118 12.4166667,1.681651 12.4166667,1.08333559 C12.4166667,0.48503101 12.901675,0 13.5,0 L13.5,0 L18.9166667,0 Z" id="形状结合"></path>
        </g>
    </g>
</svg>