<?xml version="1.0" encoding="UTF-8"?>
<svg width="21px" height="21px" viewBox="0 0 21 21" version="1.1" xmlns="http://www.w3.org/2000/svg" xmlns:xlink="http://www.w3.org/1999/xlink">
    <title>link</title>
    <g id="Page-1" stroke="none" stroke-width="1" fill="none" fill-rule="evenodd">
        <g id="link-1" fill-rule="nonzero">
            <path d="M21,2.25 L21,18.75 C21,19.9926562 19.9926562,21 18.75,21 L2.25,21 C1.00734375,21 0,19.9926562 0,18.75 L0,2.25 C0,1.00734375 1.00734375,0 2.25,0 L18.75,0 C19.9926562,0 21,1.00734375 21,2.25 Z" id="Black" fill="#000000"></path>
            <path d="M21,2.25 L21,18.75 C21,19.9926562 19.9926562,21 18.75,21 L2.25,21 C1.00734375,21 0,19.9926562 0,18.75 L0,2.25 C0,1.00734375 1.00734375,0 2.25,0 L18.75,0 C19.9926562,0 21,1.00734375 21,2.25 Z M16.875,3 L11.6263594,3 C10.6273125,3 10.1226094,4.21223438 10.8308437,4.92051563 L12.3300937,6.41990625 L3.16476563,15.5852344 C2.94510938,15.8048906 2.94510938,16.1610469 3.16476563,16.38075 L4.61925,17.8352344 C4.83895312,18.0548906 5.19510937,18.0548906 5.41476562,17.8352344 L14.5800469,8.66995313 L16.0794844,10.1695313 C16.7839687,10.8739219 18,10.3792969 18,9.37401563 L18,4.125 C18,3.50367188 17.4963281,3 16.875,3 Z" id="Shape" fill="#6AF6A7"></path>
        </g>
    </g>
</svg>