<?xml version="1.0" encoding="UTF-8"?>
<svg width="20px" height="20px" viewBox="0 0 20 20" version="1.1" xmlns="http://www.w3.org/2000/svg" xmlns:xlink="http://www.w3.org/1999/xlink">
    <title>External-Link</title>
    <g id="Page-1" stroke="none" stroke-width="1" fill="none" fill-rule="evenodd">
        <g id="external-link" fill="#FFFFFF" fill-rule="nonzero">
            <path d="M9.06666667,3 C9.69260667,3 10,3.84814787 10,4.47406521 C10,5.09998254 9.69260667,5.94627871 9.06666667,5.94627871 L2.82591218,5.94627871 L2.82591218,17.2074593 C5.16636021,17.2074593 7.05772281,17.2074593 8.5,17.2074593 C9.94227719,17.2074593 11.7938395,17.2074593 14.0546868,17.2074593 L14.0546868,10.9333333 C14.0546868,10.3073933 14.8396828,10 15.4656228,10 C16.0915628,10 17,10.3073933 17,10.9333333 L17,17.7333333 C17,18.9852133 15.9852133,20 14.7333333,20 L2.26666667,20 C1.01482067,20 0,18.9852133 0,17.7333333 L0,5.26666667 C0,4.01482067 1.01482067,3 2.26666667,3 L9.06666667,3 Z M18.75,0 C19.440375,0 20,0.559651166 20,1.2500026 L20,8.72249765 C20,9.41284909 19.7596907,10 19.0693157,10 C18.3789407,10 17.5,8.19036706 17.5,7.50001563 L16.6302456,5.82720957 L8.01662956,14.6339055 C7.52850456,15.1220315 5.854275,15.1220315 5.3661125,14.6339055 C4.8779625,14.1457795 4.8779625,12.493055 5.3661125,12.004929 L14.2744571,3.56750376 L12.5,2.5 C11.809625,2.5 10,1.62436075 10,0.933996811 C10,0.243645373 10.7851084,0 11.4754834,0 L18.75,0 Z" id="形状结合"></path>
        </g>
    </g>
</svg>